<mxfile host="app.diagrams.net" agent="Mozilla/5.0 (X11; Ubuntu; Linux x86_64; rv:135.0) Gecko/20100101 Firefox/135.0" version="26.0.14">
  <diagram name="Страница — 1" id="g24mCY87ab78DPvd3pI4">
    <mxGraphModel dx="2195" dy="731" grid="1" gridSize="10" guides="1" tooltips="1" connect="1" arrows="1" fold="1" page="1" pageScale="1" pageWidth="827" pageHeight="1169" math="0" shadow="0">
      <root>
        <mxCell id="0" />
        <mxCell id="1" parent="0" />
        <mxCell id="5aNWPN1ELe4lWxlSeHUW-1" value="Docker Compose 2.26.1 / Windows Server 2022" style="verticalAlign=top;align=left;spacingTop=8;spacingLeft=2;spacingRight=12;shape=cube;size=10;direction=south;fontStyle=4;html=1;whiteSpace=wrap;" parent="1" vertex="1">
          <mxGeometry x="120" y="30" width="580" height="570" as="geometry" />
        </mxCell>
        <mxCell id="5aNWPN1ELe4lWxlSeHUW-2" value="Docker v27.2.0 / Linux Ubuntu 20.04 LTS" style="verticalAlign=top;align=left;spacingTop=8;spacingLeft=2;spacingRight=12;shape=cube;size=10;direction=south;fontStyle=4;html=1;whiteSpace=wrap;" parent="1" vertex="1">
          <mxGeometry x="150" y="70" width="198.42" height="240" as="geometry" />
        </mxCell>
        <mxCell id="5aNWPN1ELe4lWxlSeHUW-15" style="edgeStyle=orthogonalEdgeStyle;rounded=0;orthogonalLoop=1;jettySize=auto;html=1;endArrow=block;endFill=1;startArrow=block;startFill=1;" parent="1" source="5aNWPN1ELe4lWxlSeHUW-3" target="5aNWPN1ELe4lWxlSeHUW-2" edge="1">
          <mxGeometry relative="1" as="geometry" />
        </mxCell>
        <mxCell id="5aNWPN1ELe4lWxlSeHUW-3" value="Docker v27.2.0 / Linux Ubuntu 20.04 LTS" style="verticalAlign=top;align=left;spacingTop=8;spacingLeft=2;spacingRight=12;shape=cube;size=10;direction=south;fontStyle=4;html=1;whiteSpace=wrap;" parent="1" vertex="1">
          <mxGeometry x="470" y="70" width="198.42" height="240" as="geometry" />
        </mxCell>
        <mxCell id="5aNWPN1ELe4lWxlSeHUW-4" value="Docker v27.2.0 / Linux Ubuntu 20.04 LTS" style="verticalAlign=top;align=left;spacingTop=8;spacingLeft=2;spacingRight=12;shape=cube;size=10;direction=south;fontStyle=4;html=1;whiteSpace=wrap;" parent="1" vertex="1">
          <mxGeometry x="170" y="370" width="190" height="190" as="geometry" />
        </mxCell>
        <mxCell id="5aNWPN1ELe4lWxlSeHUW-5" value="Database Server" style="verticalAlign=top;align=left;spacingTop=8;spacingLeft=2;spacingRight=12;shape=cube;size=10;direction=south;fontStyle=4;html=1;whiteSpace=wrap;" parent="1" vertex="1">
          <mxGeometry x="190" y="420" width="143.3" height="130" as="geometry" />
        </mxCell>
        <mxCell id="5aNWPN1ELe4lWxlSeHUW-6" value="Frontend Server" style="verticalAlign=top;align=left;spacingTop=8;spacingLeft=2;spacingRight=12;shape=cube;size=10;direction=south;fontStyle=4;html=1;whiteSpace=wrap;" parent="1" vertex="1">
          <mxGeometry x="177.56" y="120" width="143.3" height="180" as="geometry" />
        </mxCell>
        <mxCell id="5aNWPN1ELe4lWxlSeHUW-7" value="Web Api Server" style="verticalAlign=top;align=left;spacingTop=8;spacingLeft=2;spacingRight=12;shape=cube;size=10;direction=south;fontStyle=4;html=1;whiteSpace=wrap;" parent="1" vertex="1">
          <mxGeometry x="490" y="120" width="143.3" height="170" as="geometry" />
        </mxCell>
        <mxCell id="5aNWPN1ELe4lWxlSeHUW-8" value="Client Browser / Google Chrome 129.0.6668.59" style="verticalAlign=top;align=left;spacingTop=8;spacingLeft=2;spacingRight=12;shape=cube;size=10;direction=south;fontStyle=4;html=1;whiteSpace=wrap;" parent="1" vertex="1">
          <mxGeometry x="-160" y="250" width="160.3" height="130" as="geometry" />
        </mxCell>
        <mxCell id="5aNWPN1ELe4lWxlSeHUW-9" value="ReactJS v18.3.1&lt;br&gt;Tailwindcss v3.4.17&lt;br&gt;mobx v6.13.5" style="shape=module;align=left;spacingLeft=20;align=center;verticalAlign=top;whiteSpace=wrap;html=1;" parent="1" vertex="1">
          <mxGeometry x="-150" y="310" width="130" height="50" as="geometry" />
        </mxCell>
        <mxCell id="5aNWPN1ELe4lWxlSeHUW-10" value="nginx v.1.27.3" style="shape=module;align=left;spacingLeft=20;align=center;verticalAlign=top;whiteSpace=wrap;html=1;" parent="1" vertex="1">
          <mxGeometry x="190" y="185" width="100" height="50" as="geometry" />
        </mxCell>
        <mxCell id="5aNWPN1ELe4lWxlSeHUW-11" value="MSSQL v15.0" style="shape=module;align=left;spacingLeft=20;align=center;verticalAlign=top;whiteSpace=wrap;html=1;" parent="1" vertex="1">
          <mxGeometry x="201.65" y="470" width="100" height="50" as="geometry" />
        </mxCell>
        <mxCell id="5aNWPN1ELe4lWxlSeHUW-12" value="Node.js&lt;br&gt;v22.11.1" style="shape=module;align=left;spacingLeft=20;align=center;verticalAlign=top;whiteSpace=wrap;html=1;" parent="1" vertex="1">
          <mxGeometry x="504" y="170" width="100" height="50" as="geometry" />
        </mxCell>
        <mxCell id="5aNWPN1ELe4lWxlSeHUW-13" value="Prisma v6.0.1" style="shape=module;align=left;spacingLeft=20;align=center;verticalAlign=top;whiteSpace=wrap;html=1;" parent="1" vertex="1">
          <mxGeometry x="504" y="230" width="100" height="50" as="geometry" />
        </mxCell>
        <mxCell id="5aNWPN1ELe4lWxlSeHUW-14" value="React bundle v.18.3.1" style="shape=module;align=left;spacingLeft=20;align=center;verticalAlign=top;whiteSpace=wrap;html=1;" parent="1" vertex="1">
          <mxGeometry x="190" y="240" width="100" height="50" as="geometry" />
        </mxCell>
        <mxCell id="5aNWPN1ELe4lWxlSeHUW-16" value="" style="endArrow=classic;startArrow=classic;html=1;rounded=0;exitX=0;exitY=0;exitDx=240;exitDy=104.21;exitPerimeter=0;entryX=0;entryY=0;entryDx=90;entryDy=0;entryPerimeter=0;edgeStyle=orthogonalEdgeStyle;" parent="1" source="5aNWPN1ELe4lWxlSeHUW-3" target="5aNWPN1ELe4lWxlSeHUW-4" edge="1">
          <mxGeometry width="50" height="50" relative="1" as="geometry">
            <mxPoint x="530" y="490" as="sourcePoint" />
            <mxPoint x="580" y="440" as="targetPoint" />
          </mxGeometry>
        </mxCell>
        <mxCell id="5aNWPN1ELe4lWxlSeHUW-19" value="TCP" style="edgeLabel;html=1;align=center;verticalAlign=middle;resizable=0;points=[];" parent="5aNWPN1ELe4lWxlSeHUW-16" vertex="1" connectable="0">
          <mxGeometry x="0.2637" y="-2" relative="1" as="geometry">
            <mxPoint x="-10" y="-8" as="offset" />
          </mxGeometry>
        </mxCell>
        <mxCell id="5aNWPN1ELe4lWxlSeHUW-17" style="edgeStyle=orthogonalEdgeStyle;rounded=0;orthogonalLoop=1;jettySize=auto;html=1;entryX=0;entryY=0;entryDx=285;entryDy=580;entryPerimeter=0;startArrow=classic;startFill=1;" parent="1" source="5aNWPN1ELe4lWxlSeHUW-8" target="5aNWPN1ELe4lWxlSeHUW-1" edge="1">
          <mxGeometry relative="1" as="geometry" />
        </mxCell>
        <mxCell id="5aNWPN1ELe4lWxlSeHUW-18" value="HTTP 1.1" style="edgeLabel;html=1;align=center;verticalAlign=middle;resizable=0;points=[];" parent="5aNWPN1ELe4lWxlSeHUW-17" vertex="1" connectable="0">
          <mxGeometry x="0.2047" y="1" relative="1" as="geometry">
            <mxPoint x="-12" y="-14" as="offset" />
          </mxGeometry>
        </mxCell>
        <mxCell id="5aNWPN1ELe4lWxlSeHUW-20" value="HTTP 1.1" style="edgeLabel;html=1;align=center;verticalAlign=middle;resizable=0;points=[];" parent="1" vertex="1" connectable="0">
          <mxGeometry x="413.99999999999994" y="180" as="geometry" />
        </mxCell>
        <mxCell id="ZQMTowElQMlYm0qzmAl4-1" value="supabase" style="verticalAlign=top;align=left;spacingTop=8;spacingLeft=2;spacingRight=12;shape=cube;size=10;direction=south;fontStyle=4;html=1;whiteSpace=wrap;" vertex="1" parent="1">
          <mxGeometry x="-115" y="80" width="90" height="70" as="geometry" />
        </mxCell>
        <mxCell id="ZQMTowElQMlYm0qzmAl4-2" style="edgeStyle=orthogonalEdgeStyle;rounded=0;orthogonalLoop=1;jettySize=auto;html=1;entryX=0;entryY=0;entryDx=0;entryDy=75.15;entryPerimeter=0;startArrow=classic;startFill=1;exitX=0;exitY=0;exitDx=70;exitDy=50;exitPerimeter=0;" edge="1" parent="1" source="ZQMTowElQMlYm0qzmAl4-1" target="5aNWPN1ELe4lWxlSeHUW-8">
          <mxGeometry relative="1" as="geometry">
            <mxPoint x="-110" y="209.5" as="sourcePoint" />
            <mxPoint x="10" y="209.5" as="targetPoint" />
          </mxGeometry>
        </mxCell>
        <mxCell id="ZQMTowElQMlYm0qzmAl4-3" value="HTTP 1.1" style="edgeLabel;html=1;align=center;verticalAlign=middle;resizable=0;points=[];" vertex="1" connectable="0" parent="ZQMTowElQMlYm0qzmAl4-2">
          <mxGeometry x="0.2047" y="1" relative="1" as="geometry">
            <mxPoint x="-12" y="-14" as="offset" />
          </mxGeometry>
        </mxCell>
      </root>
    </mxGraphModel>
  </diagram>
</mxfile>
